HIERARCHY
ROOT Hips
{
    OFFSET 0.000000 0.000000 0.000000
    CHANNELS 6 Xposition Yposition Zposition Zrotation Xrotation Yrotation
    JOINT Spine
    {
        OFFSET -0.000000 7.236184 0.000000
        CHANNELS 3 Zrotation Xrotation Yrotation
        JOINT Spine1
        {
            OFFSET -0.000000 20.420147 0.000000
            CHANNELS 3 Zrotation Xrotation Yrotation
            JOINT Neck
            {
                OFFSET -0.000000 20.336288 1.848754
                CHANNELS 3 Zrotation Xrotation Yrotation
                JOINT Head
                {
                    OFFSET -0.000000 12.354461 -1.764923
                    CHANNELS 3 Zrotation Xrotation Yrotation
                    End Site
                    {
                        OFFSET -0.000000 22.061537 0.000000
                    }
                }
            }
            JOINT LeftShoulder
            {
                OFFSET 3.573296 18.396038 -0.314103
                CHANNELS 3 Zrotation Xrotation Yrotation
                JOINT LeftArm
                {
                    OFFSET 10.880760 0.000000 0.000000
                    CHANNELS 3 Zrotation Xrotation Yrotation
                    JOINT LeftForeArm
                    {
                        OFFSET 27.185530 0.000000 0.000000
                        CHANNELS 3 Zrotation Xrotation Yrotation
                        JOINT LeftHand
                        {
                            OFFSET 27.825975 0.000000 0.000000
                            CHANNELS 3 Zrotation Xrotation Yrotation
                            End Site
                            {
                                OFFSET 13.236923 0.000000 0.000000
                            }
                        }
                    }
                }
            }
            JOINT RightShoulder
            {
                OFFSET -3.474926 18.396038 -0.314103
                CHANNELS 3 Zrotation Xrotation Yrotation
                JOINT RightArm
                {
                    OFFSET -10.880760 0.000000 0.000000
                    CHANNELS 3 Zrotation Xrotation Yrotation
                    JOINT RightForeArm
                    {
                        OFFSET -27.185530 0.000000 0.000000
                        CHANNELS 3 Zrotation Xrotation Yrotation
                        JOINT RightHand
                        {
                            OFFSET -27.825975 0.000000 0.000000
                            CHANNELS 3 Zrotation Xrotation Yrotation
                            End Site
                            {
                                OFFSET -13.236923 0.000000 0.000000
                            }
                        }
                    }
                }
            }
        }
    }
    JOINT LeftUpLeg
    {
        OFFSET 8.824615 0.000000 0.000000
        CHANNELS 3 Zrotation Xrotation Yrotation
        JOINT LeftLeg
        {
            OFFSET -0.000000 -35.111282 0.000000
            CHANNELS 3 Zrotation Xrotation Yrotation
            JOINT LeftFoot
            {
                OFFSET -0.000000 -42.324711 0.000000
                CHANNELS 3 Zrotation Xrotation Yrotation
                JOINT LeftToeBase
                {
                    OFFSET -0.000000 -5.735999 13.236923
                    CHANNELS 3 Zrotation Xrotation Yrotation
                    End Site
                    {
                        OFFSET -0.000000 0.000000 3.529846
                    }
                }
            }
        }
    }
    JOINT RightUpLeg
    {
        OFFSET -8.824615 0.000000 0.000000
        CHANNELS 3 Zrotation Xrotation Yrotation
        JOINT RightLeg
        {
            OFFSET -0.000000 -35.111282 0.000000
            CHANNELS 3 Zrotation Xrotation Yrotation
            JOINT RightFoot
            {
                OFFSET -0.000000 -42.324711 0.000000
                CHANNELS 3 Zrotation Xrotation Yrotation
                JOINT RightToeBase
                {
                    OFFSET -0.000000 -5.735999 13.236923
                    CHANNELS 3 Zrotation Xrotation Yrotation
                    End Site
                    {
                        OFFSET -0.000000 0.000000 3.529846
                    }
                }
            }
        }
    }
}
MOTION
Frames:    12
Frame Time:    0.008333
-9.228933    83.818527    111.353813    -1.879375    -3.751814    -179.236038    -2.811618    -7.232404    1.054370    -3.032349    6.860960    1.413931    1.583292    1.037670    2.476746    -4.001635    -17.305565    1.199582    -0.338211    14.670726    -12.553649    -2.626654    41.245888    -86.695946    25.023846    -1.712836    -38.496723    43.990379    7.943078    1.941927    3.672133    11.300504    5.072271    14.615817    31.218941    74.050110    -23.964706    -21.017380    74.225121    -20.649248    -2.817050    -0.684298    -2.231959    -8.709329    -8.227656    -0.475664    20.791529    11.475358    -6.259721    -16.489897    -12.192246    -0.412302    -2.259474    0.458922    -1.182440    -2.654386    1.098208    3.817481    13.861326    -2.501550    -5.357939    -13.724921    -13.660092    -0.581158    -1.732741    0.630086    
-9.255395    83.822678    111.346581    -1.909296    -3.846150    -179.047394    -2.812253    -7.220652    1.030880    -3.042296    6.745530    1.387694    1.551254    1.035420    2.434713    -3.998074    -17.306152    1.161343    -0.349804    14.600596    -12.495202    -2.849811    41.203720    -86.703087    25.497095    -2.081906    -39.083717    44.792084    7.788936    1.633719    3.604664    11.199887    5.043843    14.920556    31.056032    73.847397    -24.450020    -21.710974    75.526901    -21.477808    -2.713384    -0.625894    -2.292136    -8.800258    -8.308411    -0.460330    20.773844    11.360176    -6.274559    -16.489634    -12.206032    -0.389575    -2.316847    0.433672    -1.232274    -2.747460    0.909551    3.776694    13.926194    -2.429064    -5.279237    -13.728941    -13.610706    -0.549443    -1.844169    0.595795    
-9.282918    83.820908    111.337296    -1.933228    -3.940403    -178.872650    -2.808341    -7.206305    1.010814    -3.048761    6.623541    1.364175    1.527195    1.040084    2.398332    -4.006137    -17.303343    1.124666    -0.372593    14.543648    -12.414356    -3.109839    41.201870    -86.660439    25.903257    -2.407489    -39.593781    45.588829    7.633619    1.324267    3.560038    11.123152    4.995330    15.224952    30.953081    73.615616    -24.881002    -22.354502    76.743629    -22.399742    -2.608897    -0.560616    -2.350509    -8.918475    -8.399890    -0.453967    20.808790    11.274917    -6.284535    -16.499357    -12.220299    -0.361373    -2.361323    0.402312    -1.284818    -2.889828    0.702506    3.739237    14.082267    -2.308230    -5.193829    -13.736548    -13.564698    -0.514055    -1.972772    0.557523    
-9.310926    83.812042    111.327103    -1.948936    -4.035384    -178.714142    -2.798614    -7.190047    0.993767    -3.050825    6.495914    1.342779    1.513733    1.049875    2.369380    -4.029536    -17.296982    1.090009    -0.405902    14.499844    -12.313057    -3.402401    41.240376    -86.566895    26.235538    -2.679008    -40.017288    46.369724    7.480671    1.014991    3.537585    11.071473    4.928233    15.520849    30.914549    73.359192    -25.264526    -22.929874    77.852814    -23.403282    -2.492745    -0.486136    -2.405366    -9.069068    -8.504639    -0.457413    20.902857    11.223050    -6.287831    -16.518896    -12.233171    -0.329921    -2.393800    0.367319    -1.336741    -3.086517    0.495451    3.706939    14.334350    -2.149545    -5.102590    -13.745996    -13.526851    -0.474153    -2.120026    0.514355    
-9.339394    83.794960    111.317024    -1.955362    -4.132601    -178.571045    -2.782264    -7.171701    0.978770    -3.048061    6.362135    1.322582    1.510892    1.063000    2.348512    -4.067970    -17.287283    1.058106    -0.448891    14.468165    -12.192804    -3.725735    41.318230    -86.421463    26.495882    -2.894784    -40.353493    47.136616    7.329614    0.704345    3.535774    11.044127    4.843829    15.804659    30.941877    73.078934    -25.615625    -23.432743    78.852127    -24.488419    -2.354079    -0.400016    -2.456856    -9.257808    -8.626113    -0.471069    21.062387    11.206277    -6.282990    -16.548071    -12.243520    -0.296940    -2.416342    0.330613    -1.386449    -3.343140    0.304411    3.681681    14.688213    -1.963055    -5.005116    -13.755661    -13.501705    -0.428714    -2.288465    0.465176    
-9.368387    83.768547    111.308029    -1.952143    -4.233181    -178.442749    -2.759244    -7.150972    0.964907    -3.039867    6.222251    1.302634    1.520488    1.076838    2.336892    -4.124471    -17.273668    1.029031    -0.500553    14.448691    -12.055161    -4.078880    41.433628    -86.222221    26.684551    -3.052741    -40.598591    47.889931    7.179579    0.391549    3.553054    11.040516    4.743871    16.073397    31.036863    72.774895    -25.947886    -23.858601    79.734703    -25.651989    -2.183491    -0.300491    -2.505658    -9.490449    -8.768302    -0.496379    21.294180    11.227475    -6.268809    -16.586554    -12.250390    -0.263430    -2.430293    0.293310    -1.432860    -3.665333    0.143943    3.665067    15.150448    -1.758894    -4.900248    -13.764337    -13.492748    -0.377199    -2.481336    0.409394    
-9.397852    83.731827    111.301025    -1.939521    -4.337157    -178.329590    -2.730051    -7.127728    0.951432    -3.026111    6.077625    1.282152    1.543621    1.089336    2.335500    -4.199971    -17.256155    1.003360    -0.560039    14.441455    -11.903763    -4.465046    41.584248    -85.963310    26.799332    -3.147900    -40.746475    48.624516    7.032029    0.077276    3.588804    11.061221    4.630810    16.321890    31.199652    72.448799    -26.270918    -24.200760    80.486031    -26.878771    -1.975316    -0.187111    -2.552902    -9.770333    -8.932610    -0.533850    21.602982    11.289858    -6.245162    -16.633484    -12.254962    -0.230051    -2.436265    0.256148    -1.475264    -4.055995    0.028635    3.659566    15.724193    -1.549197    -4.787289    -13.770713    -13.502897    -0.320204    -2.698413    0.347642    
-9.427938    83.683914    111.296867    -1.918485    -4.444967    -178.231216    -2.695798    -7.101808    0.937565    -3.006632    5.929264    1.260620    1.582005    1.097922    2.345147    -4.296845    -17.234127    0.981016    -0.626085    14.446199    -11.742401    -4.894057    41.767143    -85.636230    26.838940    -3.175151    -40.792530    49.337608    6.889238    -0.239287    3.641686    11.105903    4.507176    16.549164    31.429350    72.099953    -26.593340    -24.455706    81.097038    -28.154568    -1.725646    -0.060133    -2.600522    -10.100998    -9.120246    -0.584217    21.992968    11.395724    -6.212549    -16.687780    -12.258434    -0.196976    -2.434879    0.219320    -1.513762    -4.518390    -0.030523    3.667818    16.412909    -1.344674    -4.664875    -13.773458    -13.534277    -0.258535    -2.941075    0.280789    
-9.459112    83.623367    111.296249    -1.890127    -4.558195    -178.146729    -2.657547    -7.073012    0.922800    -2.981163    5.776705    1.237555    1.634820    1.099825    2.365802    -4.412889    -17.206293    0.962776    -0.698529    14.464776    -11.573061    -5.381701    41.979458    -85.227570    26.802244    -3.128883    -40.731327    50.031239    6.753428    -0.560934    3.712630    11.174495    4.374151    16.757484    31.727388    71.722282    -26.923059    -24.622044    81.564629    -29.473267    -1.430782    0.080603    -2.651065    -10.489142    -9.332869    -0.648796    22.472233    11.549147    -6.171978    -16.749033    -12.263805    -0.163557    -2.426991    0.182108    -1.548988    -5.060531    -0.025378    3.692914    17.227003    -1.154016    -4.530672    -13.771126    -13.588402    -0.192951    -3.211511    0.209642    
-9.491255    83.549706    111.299911    -1.855942    -4.676629    -178.076706    -2.616938    -7.042074    0.906853    -2.950093    5.622803    1.212859    1.700373    1.091917    2.397074    -4.543766    -17.172659    0.949626    -0.776705    14.497384    -11.400980    -5.934793    42.215511    -84.729897    26.688471    -3.004058    -40.555958    50.691277    6.630376    -0.882450    3.801490    11.268381    4.233979    16.946583    32.086540    71.317467    -27.257002    -24.691801    81.875557    -30.801971    -1.094189    0.232839    -2.706304    -10.934793    -9.566590    -0.726904    23.040127    11.749818    -6.125522    -16.815464    -12.274164    -0.129829    -2.412003    0.144550    -1.580581    -5.681247    0.050359    3.737972    18.162436    -0.988708    -4.385670    -13.761799    -13.666797    -0.125884    -3.507370    0.136834    
-9.524388    83.462128    111.308525    -1.816563    -4.801046    -178.020676    -2.574576    -7.009932    0.889463    -2.913713    5.469964    1.186451    1.774173    1.070067    2.437594    -4.680690    -17.132572    0.943308    -0.860392    14.545056    -11.228445    -6.560583    42.468868    -84.136581    26.498589    -2.799111    -40.260544    51.307537    6.524182    -1.199055    3.908643    11.386759    4.087633    17.120743    32.501560    70.882835    -27.591452    -24.660795    82.025932    -32.115807    -0.719807    0.393816    -2.767492    -11.439990    -9.816947    -0.817455    23.697983    11.996211    -6.075778    -16.885958    -12.293316    -0.095571    -2.390598    0.106402    -1.607989    -6.382601    0.200383    3.807548    19.219830    -0.854935    -4.232048    -13.743236    -13.774570    -0.059307    -3.827243    0.064499    
-9.558670    83.359108    111.322746    -1.771955    -4.933028    -177.977585    -2.530522    -6.976651    0.870274    -2.872063    5.318978    1.157956    1.851143    1.030615    2.485892    -4.813750    -17.086565    0.945789    -0.951353    14.608291    -11.055828    -7.268348    42.735386    -83.437233    26.232267    -2.513411    -39.836208    51.871513    6.437260    -1.506718    4.036120    11.531221    3.933465    17.286152    32.967232    70.413361    -27.920015    -24.522549    82.014015    -33.398140    -0.310661    0.561921    -2.836066    -12.009716    -10.078853    -0.918402    24.450861    12.287004    -6.025872    -16.959974    -12.326695    -0.060829    -2.362947    0.067719    -1.630474    -7.170986    0.427873    3.908005    20.406433    -0.754242    -4.072039    -13.712445    -13.920084    0.006030    -4.173359    -0.006556    
